<?xml version="1.0" encoding="utf-8" standalone="no"?>
<!DOCTYPE svg PUBLIC "-//W3C//DTD SVG 1.1//EN"
  "http://www.w3.org/Graphics/SVG/1.1/DTD/svg11.dtd">
<!-- Created with matplotlib (http://matplotlib.org/) -->
<svg height="288pt" version="1.1" viewBox="0 0 432 288" width="432pt" xmlns="http://www.w3.org/2000/svg" xmlns:xlink="http://www.w3.org/1999/xlink">
 <defs>
  <style type="text/css">
*{stroke-linecap:butt;stroke-linejoin:round;}
  </style>
 </defs>
 <g id="figure_1">
  <g id="patch_1">
   <path d="M 0 288 
L 432 288 
L 432 0 
L 0 0 
z
" style="fill:#ffffff;"/>
  </g>
  <g id="axes_1">
   <g id="patch_2">
    <path d="M 54 252 
L 388.8 252 
L 388.8 34.56 
L 54 34.56 
z
" style="fill:#ffffff;"/>
   </g>
   <g id="matplotlib.axis_1">
    <g id="xtick_1">
     <g id="line2d_1">
      <defs>
       <path d="M 0 0 
L 0 3.5 
" id="m7722d1ec10" style="stroke:#000000;stroke-width:0.8;"/>
      </defs>
      <g>
       <use style="stroke:#000000;stroke-width:0.8;" x="79.753846" xlink:href="#m7722d1ec10" y="252"/>
      </g>
     </g>
     <g id="text_1">
      <!-- 15000 -->
      <defs>
       <path d="M 12.40625 8.296875 
L 28.515625 8.296875 
L 28.515625 63.921875 
L 10.984375 60.40625 
L 10.984375 69.390625 
L 28.421875 72.90625 
L 38.28125 72.90625 
L 38.28125 8.296875 
L 54.390625 8.296875 
L 54.390625 0 
L 12.40625 0 
z
" id="DejaVuSans-31"/>
       <path d="M 10.796875 72.90625 
L 49.515625 72.90625 
L 49.515625 64.59375 
L 19.828125 64.59375 
L 19.828125 46.734375 
Q 21.96875 47.46875 24.109375 47.828125 
Q 26.265625 48.1875 28.421875 48.1875 
Q 40.625 48.1875 47.75 41.5 
Q 54.890625 34.8125 54.890625 23.390625 
Q 54.890625 11.625 47.5625 5.09375 
Q 40.234375 -1.421875 26.90625 -1.421875 
Q 22.3125 -1.421875 17.546875 -0.640625 
Q 12.796875 0.140625 7.71875 1.703125 
L 7.71875 11.625 
Q 12.109375 9.234375 16.796875 8.0625 
Q 21.484375 6.890625 26.703125 6.890625 
Q 35.15625 6.890625 40.078125 11.328125 
Q 45.015625 15.765625 45.015625 23.390625 
Q 45.015625 31 40.078125 35.4375 
Q 35.15625 39.890625 26.703125 39.890625 
Q 22.75 39.890625 18.8125 39.015625 
Q 14.890625 38.140625 10.796875 36.28125 
z
" id="DejaVuSans-35"/>
       <path d="M 31.78125 66.40625 
Q 24.171875 66.40625 20.328125 58.90625 
Q 16.5 51.421875 16.5 36.375 
Q 16.5 21.390625 20.328125 13.890625 
Q 24.171875 6.390625 31.78125 6.390625 
Q 39.453125 6.390625 43.28125 13.890625 
Q 47.125 21.390625 47.125 36.375 
Q 47.125 51.421875 43.28125 58.90625 
Q 39.453125 66.40625 31.78125 66.40625 
z
M 31.78125 74.21875 
Q 44.046875 74.21875 50.515625 64.515625 
Q 56.984375 54.828125 56.984375 36.375 
Q 56.984375 17.96875 50.515625 8.265625 
Q 44.046875 -1.421875 31.78125 -1.421875 
Q 19.53125 -1.421875 13.0625 8.265625 
Q 6.59375 17.96875 6.59375 36.375 
Q 6.59375 54.828125 13.0625 64.515625 
Q 19.53125 74.21875 31.78125 74.21875 
z
" id="DejaVuSans-30"/>
      </defs>
      <g transform="translate(63.847596 266.598437)scale(0.1 -0.1)">
       <use xlink:href="#DejaVuSans-31"/>
       <use x="63.623047" xlink:href="#DejaVuSans-35"/>
       <use x="127.246094" xlink:href="#DejaVuSans-30"/>
       <use x="190.869141" xlink:href="#DejaVuSans-30"/>
       <use x="254.492188" xlink:href="#DejaVuSans-30"/>
      </g>
     </g>
    </g>
    <g id="xtick_2">
     <g id="line2d_2">
      <g>
       <use style="stroke:#000000;stroke-width:0.8;" x="131.261538" xlink:href="#m7722d1ec10" y="252"/>
      </g>
     </g>
     <g id="text_2">
      <!-- 15100 -->
      <g transform="translate(115.355288 266.598437)scale(0.1 -0.1)">
       <use xlink:href="#DejaVuSans-31"/>
       <use x="63.623047" xlink:href="#DejaVuSans-35"/>
       <use x="127.246094" xlink:href="#DejaVuSans-31"/>
       <use x="190.869141" xlink:href="#DejaVuSans-30"/>
       <use x="254.492188" xlink:href="#DejaVuSans-30"/>
      </g>
     </g>
    </g>
    <g id="xtick_3">
     <g id="line2d_3">
      <g>
       <use style="stroke:#000000;stroke-width:0.8;" x="182.769231" xlink:href="#m7722d1ec10" y="252"/>
      </g>
     </g>
     <g id="text_3">
      <!-- 15200 -->
      <defs>
       <path d="M 19.1875 8.296875 
L 53.609375 8.296875 
L 53.609375 0 
L 7.328125 0 
L 7.328125 8.296875 
Q 12.9375 14.109375 22.625 23.890625 
Q 32.328125 33.6875 34.8125 36.53125 
Q 39.546875 41.84375 41.421875 45.53125 
Q 43.3125 49.21875 43.3125 52.78125 
Q 43.3125 58.59375 39.234375 62.25 
Q 35.15625 65.921875 28.609375 65.921875 
Q 23.96875 65.921875 18.8125 64.3125 
Q 13.671875 62.703125 7.8125 59.421875 
L 7.8125 69.390625 
Q 13.765625 71.78125 18.9375 73 
Q 24.125 74.21875 28.421875 74.21875 
Q 39.75 74.21875 46.484375 68.546875 
Q 53.21875 62.890625 53.21875 53.421875 
Q 53.21875 48.921875 51.53125 44.890625 
Q 49.859375 40.875 45.40625 35.40625 
Q 44.1875 33.984375 37.640625 27.21875 
Q 31.109375 20.453125 19.1875 8.296875 
z
" id="DejaVuSans-32"/>
      </defs>
      <g transform="translate(166.862981 266.598437)scale(0.1 -0.1)">
       <use xlink:href="#DejaVuSans-31"/>
       <use x="63.623047" xlink:href="#DejaVuSans-35"/>
       <use x="127.246094" xlink:href="#DejaVuSans-32"/>
       <use x="190.869141" xlink:href="#DejaVuSans-30"/>
       <use x="254.492188" xlink:href="#DejaVuSans-30"/>
      </g>
     </g>
    </g>
    <g id="xtick_4">
     <g id="line2d_4">
      <g>
       <use style="stroke:#000000;stroke-width:0.8;" x="234.276923" xlink:href="#m7722d1ec10" y="252"/>
      </g>
     </g>
     <g id="text_4">
      <!-- 15300 -->
      <defs>
       <path d="M 40.578125 39.3125 
Q 47.65625 37.796875 51.625 33 
Q 55.609375 28.21875 55.609375 21.1875 
Q 55.609375 10.40625 48.1875 4.484375 
Q 40.765625 -1.421875 27.09375 -1.421875 
Q 22.515625 -1.421875 17.65625 -0.515625 
Q 12.796875 0.390625 7.625 2.203125 
L 7.625 11.71875 
Q 11.71875 9.328125 16.59375 8.109375 
Q 21.484375 6.890625 26.8125 6.890625 
Q 36.078125 6.890625 40.9375 10.546875 
Q 45.796875 14.203125 45.796875 21.1875 
Q 45.796875 27.640625 41.28125 31.265625 
Q 36.765625 34.90625 28.71875 34.90625 
L 20.21875 34.90625 
L 20.21875 43.015625 
L 29.109375 43.015625 
Q 36.375 43.015625 40.234375 45.921875 
Q 44.09375 48.828125 44.09375 54.296875 
Q 44.09375 59.90625 40.109375 62.90625 
Q 36.140625 65.921875 28.71875 65.921875 
Q 24.65625 65.921875 20.015625 65.03125 
Q 15.375 64.15625 9.8125 62.3125 
L 9.8125 71.09375 
Q 15.4375 72.65625 20.34375 73.4375 
Q 25.25 74.21875 29.59375 74.21875 
Q 40.828125 74.21875 47.359375 69.109375 
Q 53.90625 64.015625 53.90625 55.328125 
Q 53.90625 49.265625 50.4375 45.09375 
Q 46.96875 40.921875 40.578125 39.3125 
z
" id="DejaVuSans-33"/>
      </defs>
      <g transform="translate(218.370673 266.598437)scale(0.1 -0.1)">
       <use xlink:href="#DejaVuSans-31"/>
       <use x="63.623047" xlink:href="#DejaVuSans-35"/>
       <use x="127.246094" xlink:href="#DejaVuSans-33"/>
       <use x="190.869141" xlink:href="#DejaVuSans-30"/>
       <use x="254.492188" xlink:href="#DejaVuSans-30"/>
      </g>
     </g>
    </g>
    <g id="xtick_5">
     <g id="line2d_5">
      <g>
       <use style="stroke:#000000;stroke-width:0.8;" x="285.784615" xlink:href="#m7722d1ec10" y="252"/>
      </g>
     </g>
     <g id="text_5">
      <!-- 15400 -->
      <defs>
       <path d="M 37.796875 64.3125 
L 12.890625 25.390625 
L 37.796875 25.390625 
z
M 35.203125 72.90625 
L 47.609375 72.90625 
L 47.609375 25.390625 
L 58.015625 25.390625 
L 58.015625 17.1875 
L 47.609375 17.1875 
L 47.609375 0 
L 37.796875 0 
L 37.796875 17.1875 
L 4.890625 17.1875 
L 4.890625 26.703125 
z
" id="DejaVuSans-34"/>
      </defs>
      <g transform="translate(269.878365 266.598437)scale(0.1 -0.1)">
       <use xlink:href="#DejaVuSans-31"/>
       <use x="63.623047" xlink:href="#DejaVuSans-35"/>
       <use x="127.246094" xlink:href="#DejaVuSans-34"/>
       <use x="190.869141" xlink:href="#DejaVuSans-30"/>
       <use x="254.492188" xlink:href="#DejaVuSans-30"/>
      </g>
     </g>
    </g>
    <g id="xtick_6">
     <g id="line2d_6">
      <g>
       <use style="stroke:#000000;stroke-width:0.8;" x="337.292308" xlink:href="#m7722d1ec10" y="252"/>
      </g>
     </g>
     <g id="text_6">
      <!-- 15500 -->
      <g transform="translate(321.386058 266.598437)scale(0.1 -0.1)">
       <use xlink:href="#DejaVuSans-31"/>
       <use x="63.623047" xlink:href="#DejaVuSans-35"/>
       <use x="127.246094" xlink:href="#DejaVuSans-35"/>
       <use x="190.869141" xlink:href="#DejaVuSans-30"/>
       <use x="254.492188" xlink:href="#DejaVuSans-30"/>
      </g>
     </g>
    </g>
    <g id="xtick_7">
     <g id="line2d_7">
      <g>
       <use style="stroke:#000000;stroke-width:0.8;" x="388.8" xlink:href="#m7722d1ec10" y="252"/>
      </g>
     </g>
     <g id="text_7">
      <!-- 15600 -->
      <defs>
       <path d="M 33.015625 40.375 
Q 26.375 40.375 22.484375 35.828125 
Q 18.609375 31.296875 18.609375 23.390625 
Q 18.609375 15.53125 22.484375 10.953125 
Q 26.375 6.390625 33.015625 6.390625 
Q 39.65625 6.390625 43.53125 10.953125 
Q 47.40625 15.53125 47.40625 23.390625 
Q 47.40625 31.296875 43.53125 35.828125 
Q 39.65625 40.375 33.015625 40.375 
z
M 52.59375 71.296875 
L 52.59375 62.3125 
Q 48.875 64.0625 45.09375 64.984375 
Q 41.3125 65.921875 37.59375 65.921875 
Q 27.828125 65.921875 22.671875 59.328125 
Q 17.53125 52.734375 16.796875 39.40625 
Q 19.671875 43.65625 24.015625 45.921875 
Q 28.375 48.1875 33.59375 48.1875 
Q 44.578125 48.1875 50.953125 41.515625 
Q 57.328125 34.859375 57.328125 23.390625 
Q 57.328125 12.15625 50.6875 5.359375 
Q 44.046875 -1.421875 33.015625 -1.421875 
Q 20.359375 -1.421875 13.671875 8.265625 
Q 6.984375 17.96875 6.984375 36.375 
Q 6.984375 53.65625 15.1875 63.9375 
Q 23.390625 74.21875 37.203125 74.21875 
Q 40.921875 74.21875 44.703125 73.484375 
Q 48.484375 72.75 52.59375 71.296875 
z
" id="DejaVuSans-36"/>
      </defs>
      <g transform="translate(372.89375 266.598437)scale(0.1 -0.1)">
       <use xlink:href="#DejaVuSans-31"/>
       <use x="63.623047" xlink:href="#DejaVuSans-35"/>
       <use x="127.246094" xlink:href="#DejaVuSans-36"/>
       <use x="190.869141" xlink:href="#DejaVuSans-30"/>
       <use x="254.492188" xlink:href="#DejaVuSans-30"/>
      </g>
     </g>
    </g>
    <g id="text_8">
     <!-- Time (ns) -->
     <defs>
      <path d="M -0.296875 72.90625 
L 61.375 72.90625 
L 61.375 64.59375 
L 35.5 64.59375 
L 35.5 0 
L 25.59375 0 
L 25.59375 64.59375 
L -0.296875 64.59375 
z
" id="DejaVuSans-54"/>
      <path d="M 9.421875 54.6875 
L 18.40625 54.6875 
L 18.40625 0 
L 9.421875 0 
z
M 9.421875 75.984375 
L 18.40625 75.984375 
L 18.40625 64.59375 
L 9.421875 64.59375 
z
" id="DejaVuSans-69"/>
      <path d="M 52 44.1875 
Q 55.375 50.25 60.0625 53.125 
Q 64.75 56 71.09375 56 
Q 79.640625 56 84.28125 50.015625 
Q 88.921875 44.046875 88.921875 33.015625 
L 88.921875 0 
L 79.890625 0 
L 79.890625 32.71875 
Q 79.890625 40.578125 77.09375 44.375 
Q 74.3125 48.1875 68.609375 48.1875 
Q 61.625 48.1875 57.5625 43.546875 
Q 53.515625 38.921875 53.515625 30.90625 
L 53.515625 0 
L 44.484375 0 
L 44.484375 32.71875 
Q 44.484375 40.625 41.703125 44.40625 
Q 38.921875 48.1875 33.109375 48.1875 
Q 26.21875 48.1875 22.15625 43.53125 
Q 18.109375 38.875 18.109375 30.90625 
L 18.109375 0 
L 9.078125 0 
L 9.078125 54.6875 
L 18.109375 54.6875 
L 18.109375 46.1875 
Q 21.1875 51.21875 25.484375 53.609375 
Q 29.78125 56 35.6875 56 
Q 41.65625 56 45.828125 52.96875 
Q 50 49.953125 52 44.1875 
z
" id="DejaVuSans-6d"/>
      <path d="M 56.203125 29.59375 
L 56.203125 25.203125 
L 14.890625 25.203125 
Q 15.484375 15.921875 20.484375 11.0625 
Q 25.484375 6.203125 34.421875 6.203125 
Q 39.59375 6.203125 44.453125 7.46875 
Q 49.3125 8.734375 54.109375 11.28125 
L 54.109375 2.78125 
Q 49.265625 0.734375 44.1875 -0.34375 
Q 39.109375 -1.421875 33.890625 -1.421875 
Q 20.796875 -1.421875 13.15625 6.1875 
Q 5.515625 13.8125 5.515625 26.8125 
Q 5.515625 40.234375 12.765625 48.109375 
Q 20.015625 56 32.328125 56 
Q 43.359375 56 49.78125 48.890625 
Q 56.203125 41.796875 56.203125 29.59375 
z
M 47.21875 32.234375 
Q 47.125 39.59375 43.09375 43.984375 
Q 39.0625 48.390625 32.421875 48.390625 
Q 24.90625 48.390625 20.390625 44.140625 
Q 15.875 39.890625 15.1875 32.171875 
z
" id="DejaVuSans-65"/>
      <path id="DejaVuSans-20"/>
      <path d="M 31 75.875 
Q 24.46875 64.65625 21.28125 53.65625 
Q 18.109375 42.671875 18.109375 31.390625 
Q 18.109375 20.125 21.3125 9.0625 
Q 24.515625 -2 31 -13.1875 
L 23.1875 -13.1875 
Q 15.875 -1.703125 12.234375 9.375 
Q 8.59375 20.453125 8.59375 31.390625 
Q 8.59375 42.28125 12.203125 53.3125 
Q 15.828125 64.359375 23.1875 75.875 
z
" id="DejaVuSans-28"/>
      <path d="M 54.890625 33.015625 
L 54.890625 0 
L 45.90625 0 
L 45.90625 32.71875 
Q 45.90625 40.484375 42.875 44.328125 
Q 39.84375 48.1875 33.796875 48.1875 
Q 26.515625 48.1875 22.3125 43.546875 
Q 18.109375 38.921875 18.109375 30.90625 
L 18.109375 0 
L 9.078125 0 
L 9.078125 54.6875 
L 18.109375 54.6875 
L 18.109375 46.1875 
Q 21.34375 51.125 25.703125 53.5625 
Q 30.078125 56 35.796875 56 
Q 45.21875 56 50.046875 50.171875 
Q 54.890625 44.34375 54.890625 33.015625 
z
" id="DejaVuSans-6e"/>
      <path d="M 44.28125 53.078125 
L 44.28125 44.578125 
Q 40.484375 46.53125 36.375 47.5 
Q 32.28125 48.484375 27.875 48.484375 
Q 21.1875 48.484375 17.84375 46.4375 
Q 14.5 44.390625 14.5 40.28125 
Q 14.5 37.15625 16.890625 35.375 
Q 19.28125 33.59375 26.515625 31.984375 
L 29.59375 31.296875 
Q 39.15625 29.25 43.1875 25.515625 
Q 47.21875 21.78125 47.21875 15.09375 
Q 47.21875 7.46875 41.1875 3.015625 
Q 35.15625 -1.421875 24.609375 -1.421875 
Q 20.21875 -1.421875 15.453125 -0.5625 
Q 10.6875 0.296875 5.421875 2 
L 5.421875 11.28125 
Q 10.40625 8.6875 15.234375 7.390625 
Q 20.0625 6.109375 24.8125 6.109375 
Q 31.15625 6.109375 34.5625 8.28125 
Q 37.984375 10.453125 37.984375 14.40625 
Q 37.984375 18.0625 35.515625 20.015625 
Q 33.0625 21.96875 24.703125 23.78125 
L 21.578125 24.515625 
Q 13.234375 26.265625 9.515625 29.90625 
Q 5.8125 33.546875 5.8125 39.890625 
Q 5.8125 47.609375 11.28125 51.796875 
Q 16.75 56 26.8125 56 
Q 31.78125 56 36.171875 55.265625 
Q 40.578125 54.546875 44.28125 53.078125 
z
" id="DejaVuSans-73"/>
      <path d="M 8.015625 75.875 
L 15.828125 75.875 
Q 23.140625 64.359375 26.78125 53.3125 
Q 30.421875 42.28125 30.421875 31.390625 
Q 30.421875 20.453125 26.78125 9.375 
Q 23.140625 -1.703125 15.828125 -13.1875 
L 8.015625 -13.1875 
Q 14.5 -2 17.703125 9.0625 
Q 20.90625 20.125 20.90625 31.390625 
Q 20.90625 42.671875 17.703125 53.65625 
Q 14.5 64.65625 8.015625 75.875 
z
" id="DejaVuSans-29"/>
     </defs>
     <g transform="translate(197.748437 280.276563)scale(0.1 -0.1)">
      <use xlink:href="#DejaVuSans-54"/>
      <use x="61.037109" xlink:href="#DejaVuSans-69"/>
      <use x="88.820312" xlink:href="#DejaVuSans-6d"/>
      <use x="186.232422" xlink:href="#DejaVuSans-65"/>
      <use x="247.755859" xlink:href="#DejaVuSans-20"/>
      <use x="279.542969" xlink:href="#DejaVuSans-28"/>
      <use x="318.556641" xlink:href="#DejaVuSans-6e"/>
      <use x="381.935547" xlink:href="#DejaVuSans-73"/>
      <use x="434.035156" xlink:href="#DejaVuSans-29"/>
     </g>
    </g>
   </g>
   <g id="matplotlib.axis_2">
    <g id="ytick_1">
     <g id="line2d_8">
      <defs>
       <path d="M 0 0 
L -3.5 0 
" id="mc5ae5601a1" style="stroke:#000000;stroke-width:0.8;"/>
      </defs>
      <g>
       <use style="stroke:#000000;stroke-width:0.8;" x="54" xlink:href="#mc5ae5601a1" y="241.844874"/>
      </g>
     </g>
     <g id="text_9">
      <!-- 0.00 -->
      <defs>
       <path d="M 10.6875 12.40625 
L 21 12.40625 
L 21 0 
L 10.6875 0 
z
" id="DejaVuSans-2e"/>
      </defs>
      <g transform="translate(24.734375 245.644093)scale(0.1 -0.1)">
       <use xlink:href="#DejaVuSans-30"/>
       <use x="63.623047" xlink:href="#DejaVuSans-2e"/>
       <use x="95.410156" xlink:href="#DejaVuSans-30"/>
       <use x="159.033203" xlink:href="#DejaVuSans-30"/>
      </g>
     </g>
    </g>
    <g id="ytick_2">
     <g id="line2d_9">
      <g>
       <use style="stroke:#000000;stroke-width:0.8;" x="54" xlink:href="#mc5ae5601a1" y="204.000625"/>
      </g>
     </g>
     <g id="text_10">
      <!-- 0.02 -->
      <g transform="translate(24.734375 207.799844)scale(0.1 -0.1)">
       <use xlink:href="#DejaVuSans-30"/>
       <use x="63.623047" xlink:href="#DejaVuSans-2e"/>
       <use x="95.410156" xlink:href="#DejaVuSans-30"/>
       <use x="159.033203" xlink:href="#DejaVuSans-32"/>
      </g>
     </g>
    </g>
    <g id="ytick_3">
     <g id="line2d_10">
      <g>
       <use style="stroke:#000000;stroke-width:0.8;" x="54" xlink:href="#mc5ae5601a1" y="166.156376"/>
      </g>
     </g>
     <g id="text_11">
      <!-- 0.04 -->
      <g transform="translate(24.734375 169.955595)scale(0.1 -0.1)">
       <use xlink:href="#DejaVuSans-30"/>
       <use x="63.623047" xlink:href="#DejaVuSans-2e"/>
       <use x="95.410156" xlink:href="#DejaVuSans-30"/>
       <use x="159.033203" xlink:href="#DejaVuSans-34"/>
      </g>
     </g>
    </g>
    <g id="ytick_4">
     <g id="line2d_11">
      <g>
       <use style="stroke:#000000;stroke-width:0.8;" x="54" xlink:href="#mc5ae5601a1" y="128.312127"/>
      </g>
     </g>
     <g id="text_12">
      <!-- 0.06 -->
      <g transform="translate(24.734375 132.111346)scale(0.1 -0.1)">
       <use xlink:href="#DejaVuSans-30"/>
       <use x="63.623047" xlink:href="#DejaVuSans-2e"/>
       <use x="95.410156" xlink:href="#DejaVuSans-30"/>
       <use x="159.033203" xlink:href="#DejaVuSans-36"/>
      </g>
     </g>
    </g>
    <g id="ytick_5">
     <g id="line2d_12">
      <g>
       <use style="stroke:#000000;stroke-width:0.8;" x="54" xlink:href="#mc5ae5601a1" y="90.467878"/>
      </g>
     </g>
     <g id="text_13">
      <!-- 0.08 -->
      <defs>
       <path d="M 31.78125 34.625 
Q 24.75 34.625 20.71875 30.859375 
Q 16.703125 27.09375 16.703125 20.515625 
Q 16.703125 13.921875 20.71875 10.15625 
Q 24.75 6.390625 31.78125 6.390625 
Q 38.8125 6.390625 42.859375 10.171875 
Q 46.921875 13.96875 46.921875 20.515625 
Q 46.921875 27.09375 42.890625 30.859375 
Q 38.875 34.625 31.78125 34.625 
z
M 21.921875 38.8125 
Q 15.578125 40.375 12.03125 44.71875 
Q 8.5 49.078125 8.5 55.328125 
Q 8.5 64.0625 14.71875 69.140625 
Q 20.953125 74.21875 31.78125 74.21875 
Q 42.671875 74.21875 48.875 69.140625 
Q 55.078125 64.0625 55.078125 55.328125 
Q 55.078125 49.078125 51.53125 44.71875 
Q 48 40.375 41.703125 38.8125 
Q 48.828125 37.15625 52.796875 32.3125 
Q 56.78125 27.484375 56.78125 20.515625 
Q 56.78125 9.90625 50.3125 4.234375 
Q 43.84375 -1.421875 31.78125 -1.421875 
Q 19.734375 -1.421875 13.25 4.234375 
Q 6.78125 9.90625 6.78125 20.515625 
Q 6.78125 27.484375 10.78125 32.3125 
Q 14.796875 37.15625 21.921875 38.8125 
z
M 18.3125 54.390625 
Q 18.3125 48.734375 21.84375 45.5625 
Q 25.390625 42.390625 31.78125 42.390625 
Q 38.140625 42.390625 41.71875 45.5625 
Q 45.3125 48.734375 45.3125 54.390625 
Q 45.3125 60.0625 41.71875 63.234375 
Q 38.140625 66.40625 31.78125 66.40625 
Q 25.390625 66.40625 21.84375 63.234375 
Q 18.3125 60.0625 18.3125 54.390625 
z
" id="DejaVuSans-38"/>
      </defs>
      <g transform="translate(24.734375 94.267097)scale(0.1 -0.1)">
       <use xlink:href="#DejaVuSans-30"/>
       <use x="63.623047" xlink:href="#DejaVuSans-2e"/>
       <use x="95.410156" xlink:href="#DejaVuSans-30"/>
       <use x="159.033203" xlink:href="#DejaVuSans-38"/>
      </g>
     </g>
    </g>
    <g id="ytick_6">
     <g id="line2d_13">
      <g>
       <use style="stroke:#000000;stroke-width:0.8;" x="54" xlink:href="#mc5ae5601a1" y="52.623629"/>
      </g>
     </g>
     <g id="text_14">
      <!-- 0.10 -->
      <g transform="translate(24.734375 56.422848)scale(0.1 -0.1)">
       <use xlink:href="#DejaVuSans-30"/>
       <use x="63.623047" xlink:href="#DejaVuSans-2e"/>
       <use x="95.410156" xlink:href="#DejaVuSans-31"/>
       <use x="159.033203" xlink:href="#DejaVuSans-30"/>
      </g>
     </g>
    </g>
    <g id="text_15">
     <!-- Amplitude (V) -->
     <defs>
      <path d="M 34.1875 63.1875 
L 20.796875 26.90625 
L 47.609375 26.90625 
z
M 28.609375 72.90625 
L 39.796875 72.90625 
L 67.578125 0 
L 57.328125 0 
L 50.6875 18.703125 
L 17.828125 18.703125 
L 11.1875 0 
L 0.78125 0 
z
" id="DejaVuSans-41"/>
      <path d="M 18.109375 8.203125 
L 18.109375 -20.796875 
L 9.078125 -20.796875 
L 9.078125 54.6875 
L 18.109375 54.6875 
L 18.109375 46.390625 
Q 20.953125 51.265625 25.265625 53.625 
Q 29.59375 56 35.59375 56 
Q 45.5625 56 51.78125 48.09375 
Q 58.015625 40.1875 58.015625 27.296875 
Q 58.015625 14.40625 51.78125 6.484375 
Q 45.5625 -1.421875 35.59375 -1.421875 
Q 29.59375 -1.421875 25.265625 0.953125 
Q 20.953125 3.328125 18.109375 8.203125 
z
M 48.6875 27.296875 
Q 48.6875 37.203125 44.609375 42.84375 
Q 40.53125 48.484375 33.40625 48.484375 
Q 26.265625 48.484375 22.1875 42.84375 
Q 18.109375 37.203125 18.109375 27.296875 
Q 18.109375 17.390625 22.1875 11.75 
Q 26.265625 6.109375 33.40625 6.109375 
Q 40.53125 6.109375 44.609375 11.75 
Q 48.6875 17.390625 48.6875 27.296875 
z
" id="DejaVuSans-70"/>
      <path d="M 9.421875 75.984375 
L 18.40625 75.984375 
L 18.40625 0 
L 9.421875 0 
z
" id="DejaVuSans-6c"/>
      <path d="M 18.3125 70.21875 
L 18.3125 54.6875 
L 36.8125 54.6875 
L 36.8125 47.703125 
L 18.3125 47.703125 
L 18.3125 18.015625 
Q 18.3125 11.328125 20.140625 9.421875 
Q 21.96875 7.515625 27.59375 7.515625 
L 36.8125 7.515625 
L 36.8125 0 
L 27.59375 0 
Q 17.1875 0 13.234375 3.875 
Q 9.28125 7.765625 9.28125 18.015625 
L 9.28125 47.703125 
L 2.6875 47.703125 
L 2.6875 54.6875 
L 9.28125 54.6875 
L 9.28125 70.21875 
z
" id="DejaVuSans-74"/>
      <path d="M 8.5 21.578125 
L 8.5 54.6875 
L 17.484375 54.6875 
L 17.484375 21.921875 
Q 17.484375 14.15625 20.5 10.265625 
Q 23.53125 6.390625 29.59375 6.390625 
Q 36.859375 6.390625 41.078125 11.03125 
Q 45.3125 15.671875 45.3125 23.6875 
L 45.3125 54.6875 
L 54.296875 54.6875 
L 54.296875 0 
L 45.3125 0 
L 45.3125 8.40625 
Q 42.046875 3.421875 37.71875 1 
Q 33.40625 -1.421875 27.6875 -1.421875 
Q 18.265625 -1.421875 13.375 4.4375 
Q 8.5 10.296875 8.5 21.578125 
z
M 31.109375 56 
z
" id="DejaVuSans-75"/>
      <path d="M 45.40625 46.390625 
L 45.40625 75.984375 
L 54.390625 75.984375 
L 54.390625 0 
L 45.40625 0 
L 45.40625 8.203125 
Q 42.578125 3.328125 38.25 0.953125 
Q 33.9375 -1.421875 27.875 -1.421875 
Q 17.96875 -1.421875 11.734375 6.484375 
Q 5.515625 14.40625 5.515625 27.296875 
Q 5.515625 40.1875 11.734375 48.09375 
Q 17.96875 56 27.875 56 
Q 33.9375 56 38.25 53.625 
Q 42.578125 51.265625 45.40625 46.390625 
z
M 14.796875 27.296875 
Q 14.796875 17.390625 18.875 11.75 
Q 22.953125 6.109375 30.078125 6.109375 
Q 37.203125 6.109375 41.296875 11.75 
Q 45.40625 17.390625 45.40625 27.296875 
Q 45.40625 37.203125 41.296875 42.84375 
Q 37.203125 48.484375 30.078125 48.484375 
Q 22.953125 48.484375 18.875 42.84375 
Q 14.796875 37.203125 14.796875 27.296875 
z
" id="DejaVuSans-64"/>
      <path d="M 28.609375 0 
L 0.78125 72.90625 
L 11.078125 72.90625 
L 34.1875 11.53125 
L 57.328125 72.90625 
L 67.578125 72.90625 
L 39.796875 0 
z
" id="DejaVuSans-56"/>
     </defs>
     <g transform="translate(18.654687 177.813594)rotate(-90)scale(0.1 -0.1)">
      <use xlink:href="#DejaVuSans-41"/>
      <use x="68.408203" xlink:href="#DejaVuSans-6d"/>
      <use x="165.820312" xlink:href="#DejaVuSans-70"/>
      <use x="229.296875" xlink:href="#DejaVuSans-6c"/>
      <use x="257.080078" xlink:href="#DejaVuSans-69"/>
      <use x="284.863281" xlink:href="#DejaVuSans-74"/>
      <use x="324.072266" xlink:href="#DejaVuSans-75"/>
      <use x="387.451172" xlink:href="#DejaVuSans-64"/>
      <use x="450.927734" xlink:href="#DejaVuSans-65"/>
      <use x="512.451172" xlink:href="#DejaVuSans-20"/>
      <use x="544.238281" xlink:href="#DejaVuSans-28"/>
      <use x="583.251953" xlink:href="#DejaVuSans-56"/>
      <use x="651.660156" xlink:href="#DejaVuSans-29"/>
     </g>
    </g>
   </g>
   <g id="line2d_14">
    <path clip-path="url(#p8924c1cfbe)" d="M 53.742462 241.971948 
L 54 242.009916 
L 55.030154 241.752128 
L 56.060308 241.830532 
L 56.317846 241.683796 
L 56.575385 241.969556 
L 57.090462 241.749032 
L 57.348 241.940145 
L 57.605538 241.79375 
L 57.863077 241.930598 
L 59.150769 241.801873 
L 59.408308 241.925233 
L 59.665846 241.820366 
L 59.923385 241.901045 
L 60.438462 241.828609 
L 60.953538 241.907504 
L 61.468615 241.82926 
L 62.498769 241.983691 
L 62.756308 241.761615 
L 63.013846 241.939055 
L 63.528923 241.829499 
L 63.786462 241.717811 
L 64.301538 241.862724 
L 67.392 241.808608 
L 67.649538 241.899803 
L 67.907077 241.789158 
L 68.679692 241.878936 
L 69.194769 241.817496 
L 69.452308 241.745585 
L 69.709846 241.898171 
L 70.482462 241.788173 
L 70.74 241.959839 
L 70.997538 241.774678 
L 71.255077 241.883215 
L 72.027692 241.81296 
L 72.285231 241.880037 
L 72.542769 241.812749 
L 72.800308 241.947291 
L 73.057846 241.770058 
L 73.315385 241.867247 
L 73.830462 241.770856 
L 75.633231 241.899806 
L 75.890769 241.793261 
L 76.148308 241.968477 
L 76.405846 241.806682 
L 77.178462 241.980018 
L 77.693538 241.813178 
L 78.466154 241.950194 
L 78.981231 241.774965 
L 79.238769 241.760114 
L 79.496308 241.893607 
L 79.753846 241.855874 
L 80.011385 241.679719 
L 80.526462 235.502618 
L 81.041538 227.019952 
L 82.071692 199.788632 
L 82.586769 185.902557 
L 83.359385 163.219782 
L 84.389538 135.038333 
L 85.934769 101.800038 
L 86.707385 87.167698 
L 87.48 76.245317 
L 88.252615 67.648589 
L 88.767692 62.913118 
L 90.312923 54.145033 
L 90.570462 53.896775 
L 90.828 52.882931 
L 91.085538 52.584407 
L 91.343077 51.908261 
L 91.600615 51.668768 
L 91.858154 50.810795 
L 92.115692 50.576543 
L 92.373231 49.660556 
L 92.630769 49.848599 
L 92.888308 49.461459 
L 93.145846 49.34251 
L 93.403385 49.640237 
L 93.660923 49.63286 
L 94.176 48.939661 
L 94.433538 49.197034 
L 94.691077 48.902449 
L 94.948615 48.879242 
L 95.206154 48.141241 
L 95.463692 48.306541 
L 95.721231 47.921322 
L 96.236308 46.860339 
L 96.493846 46.874585 
L 97.008923 45.943953 
L 97.266462 46.167913 
L 97.781538 45.01673 
L 98.039077 44.745525 
L 98.296615 44.88619 
L 98.554154 44.443636 
L 98.811692 45.111232 
L 99.069231 44.941948 
L 99.841846 45.941627 
L 100.872 47.026409 
L 101.387077 46.59043 
L 101.644615 46.625645 
L 101.902154 46.005173 
L 102.159692 45.771295 
L 102.417231 46.015131 
L 102.674769 45.91074 
L 102.932308 46.107808 
L 103.189846 46.629961 
L 103.447385 47.464073 
L 103.704923 47.884175 
L 104.22 49.052684 
L 104.477538 49.717227 
L 104.735077 50.78485 
L 104.992615 51.111503 
L 105.507692 53.054952 
L 105.765231 53.499694 
L 106.280308 55.397052 
L 106.537846 55.547566 
L 107.052923 56.57777 
L 108.598154 62.274495 
L 109.113231 65.023891 
L 110.916 73.079204 
L 111.688615 77.584679 
L 111.946154 78.82758 
L 112.203692 80.688121 
L 112.461231 81.415825 
L 113.233846 84.493346 
L 113.491385 85.102945 
L 113.748923 85.192097 
L 114.006462 85.804679 
L 114.264 85.950745 
L 115.809231 90.071284 
L 116.066769 90.197352 
L 116.324308 91.409118 
L 116.839385 92.133352 
L 117.096923 93.641671 
L 117.354462 93.777776 
L 117.612 94.612837 
L 117.869538 95.91254 
L 118.127077 96.423669 
L 118.642154 98.320375 
L 119.672308 102.152342 
L 119.929846 103.598604 
L 120.187385 104.167786 
L 122.762769 117.841856 
L 124.565538 125.309271 
L 125.853231 130.642502 
L 127.656 137.649953 
L 127.913538 139.038986 
L 128.171077 139.740205 
L 129.201231 143.865957 
L 130.746462 148.342834 
L 131.261538 149.308273 
L 132.806769 153.880167 
L 136.154769 166.280487 
L 136.412308 166.86487 
L 136.927385 168.517087 
L 137.442462 169.618114 
L 137.7 169.418033 
L 138.472615 170.517091 
L 138.730154 170.500852 
L 138.987692 170.968863 
L 139.245231 170.709305 
L 140.017846 171.595637 
L 140.275385 171.621313 
L 141.305538 173.55266 
L 141.820615 174.944354 
L 143.880923 180.759172 
L 144.138462 181.048386 
L 144.653538 182.793813 
L 145.168615 183.94304 
L 145.426154 184.64843 
L 145.683692 184.93981 
L 146.456308 187.503687 
L 146.713846 187.997158 
L 147.486462 190.160119 
L 147.744 190.845441 
L 148.516615 192.122694 
L 148.774154 192.491306 
L 149.031692 192.662331 
L 149.546769 193.555926 
L 149.804308 193.580153 
L 150.576923 194.389049 
L 150.834462 194.040363 
L 152.122154 194.844226 
L 153.152308 196.126626 
L 154.44 198.245435 
L 154.697538 199.0502 
L 155.212615 199.824961 
L 156.242769 202.572277 
L 156.757846 203.871574 
L 157.272923 205.454062 
L 158.303077 207.706578 
L 159.075692 208.851131 
L 160.105846 209.983738 
L 160.363385 210.312122 
L 160.620923 210.424823 
L 161.651077 211.559673 
L 161.908615 211.828266 
L 162.166154 212.33132 
L 162.423692 212.447271 
L 163.196308 213.756243 
L 164.226462 215.427759 
L 166.286769 218.511765 
L 166.544308 218.568221 
L 167.059385 218.942912 
L 167.316923 218.984695 
L 167.574462 219.321913 
L 167.832 219.027796 
L 168.089538 219.210759 
L 168.347077 219.543699 
L 168.604615 219.550702 
L 169.377231 220.106796 
L 170.922462 220.628104 
L 171.18 220.344566 
L 171.952615 220.697691 
L 172.210154 220.370914 
L 172.467692 220.609377 
L 172.725231 220.611298 
L 172.982769 220.884093 
L 173.240308 220.994194 
L 176.330769 224.130169 
L 176.588308 224.051998 
L 177.360923 224.292032 
L 177.618462 224.608594 
L 177.876 224.732664 
L 178.133538 224.679045 
L 178.648615 225.139568 
L 179.163692 225.505379 
L 179.678769 225.976219 
L 179.936308 226.012215 
L 180.193846 226.400675 
L 180.451385 226.454777 
L 180.966462 226.908556 
L 181.739077 227.378615 
L 182.254154 227.844159 
L 182.511692 227.901358 
L 183.284308 228.529767 
L 183.541846 228.634607 
L 183.799385 228.879955 
L 184.056923 228.891197 
L 184.314462 229.211704 
L 184.829538 229.339345 
L 185.087077 229.620808 
L 185.344615 229.543988 
L 185.602154 229.963511 
L 185.859692 229.751867 
L 186.117231 229.829049 
L 186.374769 230.108912 
L 187.147385 229.849863 
L 187.404923 229.967104 
L 187.662462 229.941584 
L 187.92 229.786845 
L 188.177538 229.987113 
L 188.435077 229.861344 
L 188.692615 230.071874 
L 188.950154 230.0721 
L 191.783077 231.75395 
L 192.298154 232.195557 
L 192.555692 232.102165 
L 193.328308 232.327701 
L 193.843385 232.550666 
L 194.616 232.730517 
L 195.131077 232.907088 
L 195.388615 232.868742 
L 195.646154 233.086636 
L 196.161231 233.095331 
L 196.418769 233.373349 
L 196.933846 233.445682 
L 197.191385 233.498062 
L 197.448923 233.389323 
L 198.479077 233.846946 
L 198.736615 233.905062 
L 198.994154 234.277448 
L 199.251692 234.344576 
L 199.509231 234.078083 
L 200.281846 234.44161 
L 200.539385 234.387543 
L 200.796923 234.4593 
L 201.054462 234.276692 
L 201.569538 234.340508 
L 201.827077 234.120996 
L 202.084615 234.302165 
L 202.342154 234.117243 
L 202.857231 234.157232 
L 203.114769 234.372742 
L 205.175077 234.963831 
L 205.947692 235.403642 
L 206.720308 235.336858 
L 206.977846 235.603707 
L 207.235385 235.462766 
L 208.008 235.591655 
L 208.780615 235.92071 
L 209.038154 235.777383 
L 209.295692 235.861066 
L 209.553231 236.147963 
L 210.583385 236.117616 
L 210.840923 236.248681 
L 211.098462 236.21623 
L 211.613538 236.481136 
L 212.128615 236.117922 
L 212.643692 235.886206 
L 213.158769 235.967954 
L 213.416308 235.704717 
L 214.188923 235.905743 
L 214.446462 235.763933 
L 214.704 236.036143 
L 214.961538 235.916774 
L 215.219077 236.148478 
L 215.476615 235.870374 
L 215.991692 235.86219 
L 216.506769 235.696476 
L 216.764308 235.858743 
L 217.279385 235.74257 
L 217.536923 235.812515 
L 217.794462 236.012742 
L 218.052 236.00699 
L 218.824615 236.402337 
L 219.082154 236.377863 
L 219.339692 236.523516 
L 219.597231 236.511389 
L 220.369846 237.102937 
L 220.627385 237.076679 
L 220.884923 237.240428 
L 223.202769 237.278602 
L 223.460308 237.087212 
L 223.717846 237.098617 
L 223.975385 237.233129 
L 224.490462 237.204054 
L 224.748 237.521385 
L 225.005538 237.302755 
L 225.263077 237.370794 
L 225.520615 237.318961 
L 225.778154 237.542332 
L 226.035692 237.512333 
L 226.293231 237.651282 
L 226.550769 237.567952 
L 227.065846 237.83972 
L 227.323385 237.691564 
L 227.580923 237.866412 
L 227.838462 237.795932 
L 228.096 237.999572 
L 228.353538 237.954406 
L 228.611077 237.721191 
L 228.868615 237.797572 
L 229.641231 237.596308 
L 229.898769 237.683438 
L 230.413846 237.482726 
L 230.928923 237.464414 
L 231.701538 237.343381 
L 232.216615 237.487292 
L 232.731692 237.609183 
L 232.989231 237.892763 
L 233.246769 237.717 
L 233.504308 237.826659 
L 233.761846 238.083085 
L 234.019385 238.124301 
L 234.276923 238.024782 
L 234.534462 238.156563 
L 234.792 238.083425 
L 235.049538 238.181115 
L 235.307077 238.130308 
L 235.564615 238.32422 
L 236.337231 238.298746 
L 236.594769 238.197686 
L 237.367385 238.476808 
L 238.14 238.235982 
L 238.655077 238.248602 
L 238.912615 238.167708 
L 239.170154 238.293753 
L 239.427692 238.233973 
L 239.942769 238.320544 
L 240.457846 238.258955 
L 240.972923 238.407891 
L 241.230462 238.367422 
L 242.518154 238.789044 
L 242.775692 238.698649 
L 243.548308 239.009473 
L 243.805846 239.014313 
L 244.063385 239.226183 
L 244.320923 239.080912 
L 244.578462 239.290096 
L 244.836 239.242491 
L 245.866154 239.596184 
L 246.123692 239.368782 
L 246.381231 239.514912 
L 246.638769 239.509062 
L 246.896308 239.659215 
L 247.153846 239.561753 
L 247.411385 239.789511 
L 247.668923 239.76417 
L 247.926462 239.850582 
L 248.441538 239.810055 
L 249.986769 239.92566 
L 250.244308 239.791696 
L 251.789538 240.173429 
L 252.047077 239.823836 
L 252.304615 240.075506 
L 252.562154 239.912667 
L 253.334769 240.215635 
L 253.592308 240.168887 
L 254.364923 240.366986 
L 254.622462 240.283968 
L 255.137538 240.490038 
L 255.395077 240.41125 
L 255.910154 240.558528 
L 256.167692 240.550624 
L 256.425231 240.429402 
L 256.682769 240.549355 
L 256.940308 240.478 
L 257.197846 240.645041 
L 257.970462 240.558638 
L 258.743077 240.779121 
L 259.000615 240.685689 
L 259.515692 240.848854 
L 260.030769 240.623155 
L 260.288308 240.863218 
L 260.545846 240.748261 
L 261.318462 240.954108 
L 261.576 240.81585 
L 262.091077 240.895836 
L 263.378769 241.003108 
L 263.636308 241.079295 
L 263.893846 240.996599 
L 264.408923 241.151098 
L 264.666462 240.959603 
L 265.181538 241.086165 
L 265.696615 240.937997 
L 266.211692 241.223317 
L 266.984308 241.06926 
L 267.241846 241.218866 
L 267.499385 241.172658 
L 267.756923 241.291687 
L 268.529538 241.144721 
L 268.787077 241.27931 
L 269.302154 241.257008 
L 269.559692 241.401455 
L 269.817231 241.212596 
L 270.332308 241.292534 
L 270.847385 241.379412 
L 271.104923 241.213223 
L 271.362462 241.420096 
L 271.62 241.21098 
L 272.650154 241.340977 
L 273.165231 241.355419 
L 273.422769 241.429611 
L 273.680308 241.252987 
L 274.195385 241.405311 
L 274.710462 241.44507 
L 274.968 241.561128 
L 275.225538 241.397833 
L 275.740615 241.426384 
L 278.573538 241.478914 
L 280.633846 241.462989 
L 280.891385 241.383551 
L 281.148923 241.490175 
L 281.406462 241.429074 
L 281.921538 241.612336 
L 282.179077 241.616557 
L 282.694154 241.49213 
L 283.209231 241.586364 
L 283.724308 241.623653 
L 284.239385 241.530636 
L 284.496923 241.605491 
L 284.754462 241.555393 
L 285.012 241.691624 
L 285.269538 241.636643 
L 285.527077 241.703401 
L 286.042154 241.637922 
L 286.299692 241.76018 
L 287.072308 241.64698 
L 287.329846 241.64232 
L 287.587385 241.768838 
L 287.844923 241.763567 
L 288.102462 241.595932 
L 288.36 241.64458 
L 288.617538 241.537098 
L 289.647692 241.681649 
L 290.162769 241.648388 
L 290.420308 241.751778 
L 290.677846 241.60988 
L 290.935385 241.70935 
L 291.708 241.726338 
L 292.995692 241.748887 
L 293.253231 241.609472 
L 294.025846 241.707814 
L 294.283385 241.580621 
L 295.313538 241.809928 
L 295.571077 241.658779 
L 295.828615 241.7537 
L 296.601231 241.662523 
L 297.116308 241.884203 
L 297.888923 241.625489 
L 298.404 241.841324 
L 299.176615 241.7145 
L 299.434154 241.831322 
L 299.691692 241.655098 
L 299.949231 241.83841 
L 300.979385 241.714485 
L 301.494462 241.845305 
L 301.752 241.668773 
L 302.009538 241.835928 
L 303.039692 241.5975 
L 303.812308 241.789564 
L 304.069846 241.65163 
L 304.327385 241.813533 
L 305.357538 241.702703 
L 305.615077 241.865903 
L 306.387692 241.732309 
L 306.645231 241.9615 
L 306.902769 241.769245 
L 307.417846 241.692014 
L 307.675385 241.56983 
L 307.932923 241.868677 
L 308.190462 241.700961 
L 308.448 241.763153 
L 308.705538 241.618514 
L 309.220615 241.819296 
L 309.478154 241.776455 
L 309.735692 241.912674 
L 309.993231 241.725283 
L 310.250769 241.864217 
L 310.508308 241.644107 
L 310.765846 241.661034 
L 311.023385 241.830301 
L 311.280923 241.593983 
L 312.053538 241.845034 
L 312.568615 241.704105 
L 313.856308 241.774014 
L 314.886462 241.820346 
L 315.144 241.927885 
L 315.659077 241.711148 
L 315.916615 241.836688 
L 316.689231 241.638565 
L 316.946769 241.863302 
L 317.204308 241.937465 
L 317.719385 241.759425 
L 317.976923 241.73927 
L 318.492 241.876805 
L 319.007077 241.714478 
L 319.264615 241.804036 
L 319.522154 241.693038 
L 319.779692 241.907571 
L 320.294769 241.768869 
L 320.552308 241.942969 
L 320.809846 241.728702 
L 321.067385 241.819284 
L 321.324923 241.605073 
L 321.582462 241.77489 
L 322.355077 241.774312 
L 322.612615 241.914194 
L 323.127692 241.720859 
L 323.385231 241.87806 
L 323.642769 241.688418 
L 324.157846 241.862176 
L 324.415385 241.752069 
L 325.188 241.859542 
L 325.445538 241.760402 
L 325.960615 241.825573 
L 326.475692 241.806678 
L 326.733231 241.87785 
L 327.248308 241.844747 
L 327.505846 241.891426 
L 327.763385 241.748044 
L 328.020923 241.897906 
L 328.278462 241.86745 
L 328.536 241.707869 
L 329.308615 241.915656 
L 329.566154 241.715905 
L 329.823692 241.886856 
L 330.596308 241.703449 
L 330.853846 241.972431 
L 331.884 241.816912 
L 332.399077 241.858061 
L 333.944308 241.817103 
L 334.201846 241.714142 
L 334.716923 241.914079 
L 335.232 241.76684 
L 335.747077 241.91381 
L 336.004615 241.720353 
L 336.519692 241.889187 
L 336.777231 241.698042 
L 338.837538 241.836762 
L 339.610154 241.675602 
L 339.867692 241.949088 
L 340.125231 241.70039 
L 340.382769 241.899323 
L 340.640308 241.929358 
L 340.897846 241.722777 
L 341.412923 241.758746 
L 342.185538 241.952904 
L 342.700615 241.686354 
L 342.958154 242.019054 
L 343.730769 241.538383 
L 343.988308 241.674616 
L 344.245846 241.438521 
L 344.760923 241.482899 
L 345.018462 241.443827 
L 345.533538 241.510703 
L 345.791077 241.283323 
L 346.306154 241.589707 
L 346.563692 241.437097 
L 348.108923 241.458023 
L 348.624 241.616228 
L 349.139077 241.505729 
L 349.396615 241.680944 
L 349.654154 241.614315 
L 349.911692 241.704341 
L 350.169231 241.550951 
L 350.426769 241.623607 
L 350.684308 241.510059 
L 350.941846 241.657277 
L 351.199385 241.539674 
L 351.714462 241.688346 
L 353.002154 241.56804 
L 353.259692 241.734348 
L 353.774769 241.719385 
L 354.032308 241.517827 
L 354.547385 241.823662 
L 354.804923 241.545935 
L 355.577538 241.658057 
L 357.122769 241.724749 
L 357.380308 241.656458 
L 357.637846 241.724324 
L 357.895385 241.651244 
L 358.152923 241.855107 
L 358.668 241.61468 
L 359.183077 241.665302 
L 359.698154 241.722967 
L 359.955692 241.540217 
L 360.213231 241.696073 
L 360.470769 241.602168 
L 360.985846 241.825127 
L 361.500923 241.71646 
L 362.788615 241.721658 
L 363.561231 241.691098 
L 366.909231 241.794067 
L 367.166769 241.630778 
L 368.712 241.853082 
L 371.029846 241.719666 
L 371.287385 241.896346 
L 371.802462 241.733728 
L 372.317538 241.7814 
L 373.090154 241.695473 
L 373.605231 241.923404 
L 373.862769 241.658419 
L 374.120308 241.88036 
L 374.892923 241.815915 
L 376.695692 241.89478 
L 376.953231 241.692437 
L 377.468308 241.899052 
L 380.043692 241.807787 
L 380.558769 241.969764 
L 380.816308 241.825235 
L 381.073846 241.942588 
L 381.331385 241.767601 
L 382.104 241.728188 
L 382.361538 241.974233 
L 383.134154 241.73003 
L 383.391692 241.809098 
L 383.906769 241.726487 
L 384.936923 241.853231 
L 385.194462 241.9142 
L 385.709538 241.729005 
L 386.224615 241.949727 
L 386.482154 241.924575 
L 386.739692 241.720029 
L 386.997231 241.818232 
L 387.512308 241.805667 
L 387.769846 241.91064 
L 388.284923 241.85531 
L 389.057538 241.767684 
L 389.057538 241.767684 
" style="fill:none;stroke:#1f77b4;stroke-linecap:square;stroke-width:1.5;"/>
   </g>
   <g id="patch_3">
    <path d="M 54 252 
L 54 34.56 
" style="fill:none;stroke:#000000;stroke-linecap:square;stroke-linejoin:miter;stroke-width:0.8;"/>
   </g>
   <g id="patch_4">
    <path d="M 388.8 252 
L 388.8 34.56 
" style="fill:none;stroke:#000000;stroke-linecap:square;stroke-linejoin:miter;stroke-width:0.8;"/>
   </g>
   <g id="patch_5">
    <path d="M 54 252 
L 388.8 252 
" style="fill:none;stroke:#000000;stroke-linecap:square;stroke-linejoin:miter;stroke-width:0.8;"/>
   </g>
   <g id="patch_6">
    <path d="M 54 34.56 
L 388.8 34.56 
" style="fill:none;stroke:#000000;stroke-linecap:square;stroke-linejoin:miter;stroke-width:0.8;"/>
   </g>
  </g>
 </g>
 <defs>
  <clipPath id="p8924c1cfbe">
   <rect height="217.44" width="334.8" x="54" y="34.56"/>
  </clipPath>
 </defs>
</svg>
